<?xml version="1.0" encoding="UTF-8" standalone="no"?>
<svg
   xmlns:dc="http://purl.org/dc/elements/1.1/"
   xmlns:cc="http://creativecommons.org/ns#"
   xmlns:rdf="http://www.w3.org/1999/02/22-rdf-syntax-ns#"
   xmlns:svg="http://www.w3.org/2000/svg"
   xmlns="http://www.w3.org/2000/svg"
   xmlns:sodipodi="http://sodipodi.sourceforge.net/DTD/sodipodi-0.dtd"
   xmlns:inkscape="http://www.inkscape.org/namespaces/inkscape"
   width="31.532701mm"
   height="3.0118105mm"
   viewBox="0 0 372.43135 35.572485"
   preserveAspectRatio="xMinYMid slice"
   version="1.1"
   id="svg3"
   sodipodi:docname="settlements.svg"
   inkscape:version="0.92.4 (5da689c313, 2019-01-14)">
  <metadata
     id="metadata9">
    <rdf:RDF>
      <cc:Work
         rdf:about="">
        <dc:format>image/svg+xml</dc:format>
        <dc:type
           rdf:resource="http://purl.org/dc/dcmitype/StillImage" />
        <dc:title></dc:title>
      </cc:Work>
    </rdf:RDF>
  </metadata>
  <defs
     id="defs7" />
  <sodipodi:namedview
     pagecolor="#ffffff"
     bordercolor="#666666"
     borderopacity="1"
     objecttolerance="10"
     gridtolerance="10"
     guidetolerance="10"
     inkscape:pageopacity="0"
     inkscape:pageshadow="2"
     inkscape:window-width="1920"
     inkscape:window-height="1025"
     id="namedview5"
     showgrid="false"
     inkscape:zoom="6.550171"
     inkscape:cx="14.182414"
     inkscape:cy="-15.345844"
     inkscape:window-x="0"
     inkscape:window-y="27"
     inkscape:window-maximized="1"
     inkscape:current-layer="svg3"
     fit-margin-left="0.03"
     fit-margin-right="0.03"
     fit-margin-top="0"
     fit-margin-bottom="0" />
  <g
     id="g1619"
     transform="translate(0.35482006)">
    <path
       style="fill:#d42b2b;fill-opacity:1;stroke:none;stroke-width:1;stroke-linecap:round;stroke-linejoin:bevel"
       d="m 0.69589692,14.356239 c 0,0 10.96000008,-10.3500001 10.96000008,-10.3500001 0,0 10.78,-3.34999993 10.78,-3.34999993 0,0 10.53,11.74000003 10.53,11.74000003 0,0 -0.13,16.66 -0.13,16.66 0,0 -11.7,5.86 -11.7,5.86 0,0 -20.35000008,-4.04 -20.35000008,-4.04 0,0 -0.13,-16.52 -0.13,-16.52"
       id="Sans nom"
       inkscape:connector-curvature="0" />
    <path
       sodipodi:nodetypes="ccc"
       inkscape:connector-curvature="0"
       id="path827"
       d="m 11.655897,4.0062389 9.496069,14.0067351 -0.01607,16.903265"
       style="fill:none;stroke:#a72121;stroke-width:0.93749785;stroke-linecap:butt;stroke-linejoin:bevel;stroke-miterlimit:4;stroke-dasharray:none;stroke-opacity:1" />
    <path
       sodipodi:nodetypes="cc"
       inkscape:connector-curvature="0"
       id="path829"
       d="M 21.151966,18.012974 32.965897,12.396239"
       style="fill:none;stroke:#a72121;stroke-width:0.93749785;stroke-linecap:butt;stroke-linejoin:miter;stroke-miterlimit:4;stroke-dasharray:none;stroke-opacity:1" />
    <path
       style="fill:none;fill-opacity:1;stroke:#000000;stroke-width:1.31249702;stroke-linecap:round;stroke-linejoin:round;stroke-miterlimit:4;stroke-dasharray:none;stroke-opacity:1"
       d="m 0.69589702,14.356239 c 0,0 10.95999998,-10.3500001 10.95999998,-10.3500001 0,0 10.78,-3.34999993 10.78,-3.34999993 0,0 10.530001,11.74000003 10.530001,11.74000003 0,0 -0.13,16.66 -0.13,16.66 0,0 -11.700001,5.860001 -11.700001,5.860001 0,0 -20.34999998,-4.040001 -20.34999998,-4.040001 0,0 -0.13,-16.52 -0.13,-16.52"
       id="Sans nom-3"
       inkscape:connector-curvature="0" />
  </g>
  <g
     id="g1629"
     transform="translate(-2.5920079)">
    <path
       inkscape:connector-curvature="0"
       style="fill:#5cbe31;fill-opacity:1;stroke:none;stroke-width:1;stroke-linecap:round;stroke-linejoin:bevel"
       d="m 37.452861,14.356239 c 0,0 10.96,-10.3500001 10.96,-10.3500001 0,0 10.78,-3.34999993 10.78,-3.34999993 0,0 10.53,11.74000003 10.53,11.74000003 0,0 -0.13,16.66 -0.13,16.66 0,0 -11.7,5.86 -11.7,5.86 0,0 -20.35,-4.04 -20.35,-4.04 0,0 -0.13,-16.52 -0.13,-16.52"
       id="Sans nom-7" />
    <path
       sodipodi:nodetypes="ccc"
       inkscape:connector-curvature="0"
       id="path827-5"
       d="M 48.412861,4.0062389 57.90893,18.012974 57.89286,34.916239"
       style="fill:none;stroke:#3f911b;stroke-width:0.93749785;stroke-linecap:butt;stroke-linejoin:bevel;stroke-miterlimit:4;stroke-dasharray:none;stroke-opacity:1" />
    <path
       sodipodi:nodetypes="cc"
       inkscape:connector-curvature="0"
       id="path829-3"
       d="M 57.90893,18.012974 69.722861,12.396239"
       style="fill:none;stroke:#3f911b;stroke-width:0.93749785;stroke-linecap:butt;stroke-linejoin:miter;stroke-miterlimit:4;stroke-dasharray:none;stroke-opacity:1" />
    <path
       style="fill:none;fill-opacity:1;stroke:#000000;stroke-width:1.31249702;stroke-linecap:round;stroke-linejoin:round;stroke-miterlimit:4;stroke-dasharray:none;stroke-opacity:1"
       d="m 37.452861,14.356239 c 0,0 10.96,-10.3500001 10.96,-10.3500001 0,0 10.78,-3.34999993 10.78,-3.34999993 0,0 10.530001,11.74000003 10.530001,11.74000003 0,0 -0.13,16.66 -0.13,16.66 0,0 -11.700001,5.860001 -11.700001,5.860001 0,0 -20.35,-4.040001 -20.35,-4.040001 0,0 -0.13,-16.52 -0.13,-16.52"
       id="Sans nom-3-5"
       inkscape:connector-curvature="0" />
  </g>
  <g
     id="g868"
     transform="translate(-5.5388358)">
    <path
       inkscape:connector-curvature="0"
       style="fill:#5382c6;fill-opacity:1;stroke:none;stroke-width:1;stroke-linecap:round;stroke-linejoin:bevel"
       d="m 74.209825,14.356239 c 0,0 10.96,-10.3500001 10.96,-10.3500001 0,0 10.78,-3.34999993 10.78,-3.34999993 0,0 10.529995,11.74000003 10.529995,11.74000003 0,0 -0.13,16.66 -0.13,16.66 0,0 -11.699995,5.86 -11.699995,5.86 0,0 -20.35,-4.04 -20.35,-4.04 0,0 -0.13,-16.52 -0.13,-16.52"
       id="Sans nom-9" />
    <path
       sodipodi:nodetypes="ccc"
       inkscape:connector-curvature="0"
       id="path827-1"
       d="m 85.169825,4.0062389 9.496069,14.0067351 -0.01607,16.903265"
       style="fill:none;stroke:#225195;stroke-width:0.93749785;stroke-linecap:butt;stroke-linejoin:bevel;stroke-miterlimit:4;stroke-dasharray:none;stroke-opacity:1" />
    <path
       sodipodi:nodetypes="cc"
       inkscape:connector-curvature="0"
       id="path829-2"
       d="M 94.665894,18.012974 106.47982,12.396239"
       style="fill:none;stroke:#225195;stroke-width:0.93749785;stroke-linecap:butt;stroke-linejoin:miter;stroke-miterlimit:4;stroke-dasharray:none;stroke-opacity:1" />
    <path
       style="fill:none;fill-opacity:1;stroke:#000000;stroke-width:1.31249702;stroke-linecap:round;stroke-linejoin:round;stroke-miterlimit:4;stroke-dasharray:none;stroke-opacity:1"
       d="m 74.209825,14.356239 c 0,0 10.96,-10.3500001 10.96,-10.3500001 0,0 10.78,-3.34999993 10.78,-3.34999993 0,0 10.529995,11.74000003 10.529995,11.74000003 0,0 -0.13,16.66 -0.13,16.66 0,0 -11.699995,5.860001 -11.699995,5.860001 0,0 -20.35,-4.040001 -20.35,-4.040001 0,0 -0.13,-16.52 -0.13,-16.52"
       id="Sans nom-3-7"
       inkscape:connector-curvature="0" />
  </g>
  <g
     id="g874"
     transform="translate(-8.4856708)">
    <path
       inkscape:connector-curvature="0"
       style="fill:#ffa500;fill-opacity:1;stroke:none;stroke-width:1;stroke-linecap:round;stroke-linejoin:bevel"
       d="m 110.96679,14.356239 c 0,0 10.96,-10.3500001 10.96,-10.3500001 0,0 10.78,-3.34999993 10.78,-3.34999993 0,0 10.53,11.74000003 10.53,11.74000003 0,0 -0.13,16.66 -0.13,16.66 0,0 -11.7,5.86 -11.7,5.86 0,0 -20.35,-4.04 -20.35,-4.04 0,0 -0.13,-16.52 -0.13,-16.52"
       id="Sans nom-93" />
    <path
       sodipodi:nodetypes="ccc"
       inkscape:connector-curvature="0"
       id="path827-6"
       d="m 121.92679,4.0062389 9.49607,14.0067351 -0.0161,16.903265"
       style="fill:none;stroke:#966100;stroke-width:0.93749785;stroke-linecap:butt;stroke-linejoin:bevel;stroke-miterlimit:4;stroke-dasharray:none;stroke-opacity:1" />
    <path
       sodipodi:nodetypes="cc"
       inkscape:connector-curvature="0"
       id="path829-0"
       d="m 131.42286,18.012974 11.81393,-5.616735"
       style="fill:none;fill-opacity:1;stroke:#966100;stroke-width:0.93749785;stroke-linecap:butt;stroke-linejoin:miter;stroke-miterlimit:4;stroke-dasharray:none;stroke-opacity:1" />
    <path
       style="fill:none;fill-opacity:1;stroke:#000000;stroke-width:1.31249702;stroke-linecap:round;stroke-linejoin:round;stroke-miterlimit:4;stroke-dasharray:none;stroke-opacity:1"
       d="m 110.96679,14.356239 c 0,0 10.96,-10.3500001 10.96,-10.3500001 0,0 10.78,-3.34999993 10.78,-3.34999993 0,0 10.53,11.74000003 10.53,11.74000003 0,0 -0.13,16.66 -0.13,16.66 0,0 -11.7,5.860001 -11.7,5.860001 0,0 -20.35,-4.040001 -20.35,-4.040001 0,0 -0.13,-16.52 -0.13,-16.52"
       id="Sans nom-3-6"
       inkscape:connector-curvature="0" />
  </g>
  <g
     id="g937"
     transform="translate(-10.747786)">
    <path
       style="fill:#ffffff;fill-opacity:1;stroke:none;stroke-width:1;stroke-linecap:round;stroke-linejoin:bevel"
       d="m 147.03904,14.356239 c 0,0 10.96,-10.3500001 10.96,-10.3500001 0,0 10.78,-3.34999993 10.78,-3.34999993 0,0 10.53,11.74000003 10.53,11.74000003 0,0 -0.13,16.66 -0.13,16.66 0,0 -11.7,5.86 -11.7,5.86 0,0 -20.35,-4.04 -20.35,-4.04 0,0 -0.13,-16.52 -0.13,-16.52"
       id="Sans nom-6"
       inkscape:connector-curvature="0" />
    <path
       sodipodi:nodetypes="ccc"
       inkscape:connector-curvature="0"
       id="path827-7"
       d="m 157.99904,4.0062389 9.49607,14.0067351 -0.0161,16.903265"
       style="fill:none;stroke:#5e5c5c;stroke-width:0.93749785;stroke-linecap:butt;stroke-linejoin:bevel;stroke-miterlimit:4;stroke-dasharray:none;stroke-opacity:1" />
    <path
       sodipodi:nodetypes="cc"
       inkscape:connector-curvature="0"
       id="path829-5"
       d="m 167.49511,18.012974 11.81393,-5.616735"
       style="fill:none;stroke:#5e5c5c;stroke-width:0.93749785;stroke-linecap:butt;stroke-linejoin:miter;stroke-miterlimit:4;stroke-dasharray:none;stroke-opacity:1" />
    <path
       style="fill:none;fill-opacity:1;stroke:#000000;stroke-width:1.31249702;stroke-linecap:round;stroke-linejoin:round;stroke-miterlimit:4;stroke-dasharray:none;stroke-opacity:1"
       d="m 147.03904,14.356239 c 0,0 10.96,-10.3500001 10.96,-10.3500001 0,0 10.78,-3.34999993 10.78,-3.34999993 0,0 10.53,11.74000003 10.53,11.74000003 0,0 -0.13,16.66 -0.13,16.66 0,0 -11.7,5.860001 -11.7,5.860001 0,0 -20.35,-4.040001 -20.35,-4.040001 0,0 -0.13,-16.52 -0.13,-16.52"
       id="Sans nom-3-3"
       inkscape:connector-curvature="0" />
  </g>
  <g
     id="g1652"
     transform="translate(-14.379311)">
    <path
       inkscape:connector-curvature="0"
       style="fill:#e94190;fill-opacity:1;stroke:none;stroke-width:1;stroke-linecap:round;stroke-linejoin:bevel"
       d="m 184.4807,14.356239 c 0,0 10.96,-10.3500001 10.96,-10.3500001 0,0 10.78,-3.34999993 10.78,-3.34999993 0,0 10.53,11.74000003 10.53,11.74000003 0,0 -0.13,16.66 -0.13,16.66 0,0 -11.7,5.86 -11.7,5.86 0,0 -20.35,-4.04 -20.35,-4.04 0,0 -0.13,-16.52 -0.13,-16.52"
       id="Sans nom-7-6" />
    <path
       sodipodi:nodetypes="ccc"
       inkscape:connector-curvature="0"
       id="path827-5-2"
       d="m 195.4407,4.0062389 9.49607,14.0067351 -0.0161,16.903265"
       style="fill:none;stroke:#ae145d;stroke-width:0.93749785;stroke-linecap:butt;stroke-linejoin:bevel;stroke-miterlimit:4;stroke-dasharray:none;stroke-opacity:1" />
    <path
       sodipodi:nodetypes="cc"
       inkscape:connector-curvature="0"
       id="path829-3-9"
       d="M 204.93677,18.012974 216.7507,12.396239"
       style="fill:none;stroke:#ae145d;stroke-width:0.93749785;stroke-linecap:butt;stroke-linejoin:miter;stroke-miterlimit:4;stroke-dasharray:none;stroke-opacity:1" />
    <path
       style="fill:none;fill-opacity:1;stroke:#000000;stroke-width:1.31249702;stroke-linecap:round;stroke-linejoin:round;stroke-miterlimit:4;stroke-dasharray:none;stroke-opacity:1"
       d="m 184.4807,14.356239 c 0,0 10.96,-10.3500001 10.96,-10.3500001 0,0 10.78,-3.34999993 10.78,-3.34999993 0,0 10.53,11.74000003 10.53,11.74000003 0,0 -0.13,16.66 -0.13,16.66 0,0 -11.7,5.860001 -11.7,5.860001 0,0 -20.35,-4.040001 -20.35,-4.040001 0,0 -0.13,-16.52 -0.13,-16.52"
       id="Sans nom-3-5-1"
       inkscape:connector-curvature="0" />
  </g>
  <g
     id="g1662"
     transform="translate(-17.326166)">
    <path
       inkscape:connector-curvature="0"
       style="fill:#982fff;fill-opacity:1;stroke:none;stroke-width:1;stroke-linecap:round;stroke-linejoin:bevel"
       d="m 221.23769,14.356239 c 0,0 10.96,-10.3500001 10.96,-10.3500001 0,0 10.78,-3.34999993 10.78,-3.34999993 0,0 10.53,11.74000003 10.53,11.74000003 0,0 -0.13,16.66 -0.13,16.66 0,0 -11.7,5.86 -11.7,5.86 0,0 -20.35,-4.04 -20.35,-4.04 0,0 -0.13,-16.52 -0.13,-16.52"
       id="Sans nom-9-0" />
    <path
       sodipodi:nodetypes="ccc"
       inkscape:connector-curvature="0"
       id="path827-1-9"
       d="m 232.19769,4.0062389 9.49607,14.0067351 -0.0161,16.903265"
       style="fill:none;stroke:#50009e;stroke-width:0.93749785;stroke-linecap:butt;stroke-linejoin:bevel;stroke-miterlimit:4;stroke-dasharray:none;stroke-opacity:1" />
    <path
       sodipodi:nodetypes="cc"
       inkscape:connector-curvature="0"
       id="path829-2-3"
       d="m 241.69376,18.012974 11.81393,-5.616735"
       style="fill:none;stroke:#50009e;stroke-width:0.93749785;stroke-linecap:butt;stroke-linejoin:miter;stroke-miterlimit:4;stroke-dasharray:none;stroke-opacity:1" />
    <path
       style="fill:none;fill-opacity:1;stroke:#000000;stroke-width:1.31249702;stroke-linecap:round;stroke-linejoin:round;stroke-miterlimit:4;stroke-dasharray:none;stroke-opacity:1"
       d="m 221.23769,14.356239 c 0,0 10.96,-10.3500001 10.96,-10.3500001 0,0 10.78,-3.34999993 10.78,-3.34999993 0,0 10.53,11.74000003 10.53,11.74000003 0,0 -0.13,16.66 -0.13,16.66 0,0 -11.7,5.860001 -11.7,5.860001 0,0 -20.35,-4.040001 -20.35,-4.040001 0,0 -0.13,-16.52 -0.13,-16.52"
       id="Sans nom-3-7-6"
       inkscape:connector-curvature="0" />
  </g>
  <g
     id="g1672"
     transform="translate(-20.272981)">
    <path
       inkscape:connector-curvature="0"
       style="fill:#72c3b1;fill-opacity:1;stroke:none;stroke-width:1;stroke-linecap:round;stroke-linejoin:bevel"
       d="m 257.99464,14.356239 c 0,0 10.96,-10.3500001 10.96,-10.3500001 0,0 10.78,-3.34999993 10.78,-3.34999993 0,0 10.53,11.74000003 10.53,11.74000003 0,0 -0.13,16.66 -0.13,16.66 0,0 -11.7,5.86 -11.7,5.86 0,0 -20.35,-4.04 -20.35,-4.04 0,0 -0.13,-16.52 -0.13,-16.52"
       id="Sans nom-93-6" />
    <path
       sodipodi:nodetypes="ccc"
       inkscape:connector-curvature="0"
       id="path827-6-2"
       d="m 268.95464,4.0062389 9.49607,14.0067351 -0.0161,16.903265"
       style="fill:none;stroke:#357d6d;stroke-width:0.93749785;stroke-linecap:butt;stroke-linejoin:bevel;stroke-miterlimit:4;stroke-dasharray:none;stroke-opacity:1" />
    <path
       sodipodi:nodetypes="cc"
       inkscape:connector-curvature="0"
       id="path829-0-6"
       d="m 278.45071,18.012974 11.81393,-5.616735"
       style="fill:none;stroke:#357d6d;stroke-width:0.93749785;stroke-linecap:butt;stroke-linejoin:miter;stroke-miterlimit:4;stroke-dasharray:none;stroke-opacity:1" />
    <path
       style="fill:none;fill-opacity:1;stroke:#000000;stroke-width:1.31249702;stroke-linecap:round;stroke-linejoin:round;stroke-miterlimit:4;stroke-dasharray:none;stroke-opacity:1"
       d="m 257.99464,14.356239 c 0,0 10.96,-10.3500001 10.96,-10.3500001 0,0 10.78,-3.34999993 10.78,-3.34999993 0,0 10.53,11.74000003 10.53,11.74000003 0,0 -0.13,16.66 -0.13,16.66 0,0 -11.7,5.860001 -11.7,5.860001 0,0 -20.35,-4.040001 -20.35,-4.040001 0,0 -0.13,-16.52 -0.13,-16.52"
       id="Sans nom-3-6-1"
       inkscape:connector-curvature="0" />
  </g>
  <g
     id="g1682"
     transform="translate(-23.219816)">
    <path
       inkscape:connector-curvature="0"
       style="fill:#f07f16;fill-opacity:1;stroke:none;stroke-width:1;stroke-linecap:round;stroke-linejoin:bevel"
       d="m 294.75161,14.356239 c 0,0 10.96,-10.3500001 10.96,-10.3500001 0,0 10.78,-3.34999993 10.78,-3.34999993 0,0 10.53,11.74000003 10.53,11.74000003 0,0 -0.13,16.66 -0.13,16.66 0,0 -11.7,5.86 -11.7,5.86 0,0 -20.35,-4.04 -20.35,-4.04 0,0 -0.13,-16.52 -0.13,-16.52"
       id="Sans nom-7-6-7" />
    <path
       sodipodi:nodetypes="ccc"
       inkscape:connector-curvature="0"
       id="path827-5-2-9"
       d="m 305.71161,4.0062389 9.49607,14.0067351 -0.0161,16.903265"
       style="fill:none;stroke:#a3540a;stroke-width:0.93749785;stroke-linecap:butt;stroke-linejoin:bevel;stroke-miterlimit:4;stroke-dasharray:none;stroke-opacity:1" />
    <path
       sodipodi:nodetypes="cc"
       inkscape:connector-curvature="0"
       id="path829-3-9-2"
       d="m 315.20768,18.012974 11.81393,-5.616735"
       style="fill:none;stroke:#a3540a;stroke-width:0.93749785;stroke-linecap:butt;stroke-linejoin:miter;stroke-miterlimit:4;stroke-dasharray:none;stroke-opacity:1" />
    <path
       style="fill:none;fill-opacity:1;stroke:#000000;stroke-width:1.31249702;stroke-linecap:round;stroke-linejoin:round;stroke-miterlimit:4;stroke-dasharray:none;stroke-opacity:1"
       d="m 294.75161,14.356239 c 0,0 10.96,-10.3500001 10.96,-10.3500001 0,0 10.78,-3.34999993 10.78,-3.34999993 0,0 10.53,11.74000003 10.53,11.74000003 0,0 -0.13,16.66 -0.13,16.66 0,0 -11.7,5.860001 -11.7,5.860001 0,0 -20.35,-4.040001 -20.35,-4.040001 0,0 -0.13,-16.52 -0.13,-16.52"
       id="Sans nom-3-5-1-0"
       inkscape:connector-curvature="0" />
  </g>
  <g
     id="g1692"
     transform="translate(-26.166631)">
    <path
       inkscape:connector-curvature="0"
       style="fill:#bdd002;fill-opacity:1;stroke:none;stroke-width:1;stroke-linecap:round;stroke-linejoin:bevel"
       d="m 331.50856,14.356239 c 0,0 10.96,-10.3500001 10.96,-10.3500001 0,0 10.78,-3.34999993 10.78,-3.34999993 0,0 10.53,11.74000003 10.53,11.74000003 0,0 -0.13,16.66 -0.13,16.66 0,0 -11.7,5.86 -11.7,5.86 0,0 -20.35,-4.04 -20.35,-4.04 0,0 -0.13,-16.52 -0.13,-16.52"
       id="Sans nom-9-0-3" />
    <path
       sodipodi:nodetypes="ccc"
       inkscape:connector-curvature="0"
       id="path827-1-9-7"
       d="m 342.46856,4.0062389 9.49607,14.0067351 -0.0161,16.903265"
       style="fill:none;stroke:#7b8801;stroke-width:0.93749785;stroke-linecap:butt;stroke-linejoin:bevel;stroke-miterlimit:4;stroke-dasharray:none;stroke-opacity:1" />
    <path
       sodipodi:nodetypes="cc"
       inkscape:connector-curvature="0"
       id="path829-2-3-5"
       d="m 351.96463,18.012974 11.81393,-5.616735"
       style="fill:none;stroke:#7b8801;stroke-width:0.93749785;stroke-linecap:butt;stroke-linejoin:miter;stroke-miterlimit:4;stroke-dasharray:none;stroke-opacity:1" />
    <path
       style="fill:none;fill-opacity:1;stroke:#000000;stroke-width:1.31249702;stroke-linecap:round;stroke-linejoin:round;stroke-miterlimit:4;stroke-dasharray:none;stroke-opacity:1"
       d="m 331.50856,14.356239 c 0,0 10.96,-10.3500001 10.96,-10.3500001 0,0 10.78,-3.34999993 10.78,-3.34999993 0,0 10.53,11.74000003 10.53,11.74000003 0,0 -0.13,16.66 -0.13,16.66 0,0 -11.7,5.860001 -11.7,5.860001 0,0 -20.35,-4.040001 -20.35,-4.040001 0,0 -0.13,-16.52 -0.13,-16.52"
       id="Sans nom-3-7-6-9"
       inkscape:connector-curvature="0" />
  </g>
  <g
     id="g1702"
     transform="translate(-29.113456)">
    <path
       inkscape:connector-curvature="0"
       style="fill:#7b7b7b;fill-opacity:1;stroke:none;stroke-width:1;stroke-linecap:round;stroke-linejoin:bevel"
       d="m 368.26552,14.356239 c 0,0 10.96,-10.35 10.96,-10.35 0,0 10.78001,-3.35 10.78001,-3.35 0,0 10.53,11.74 10.53,11.74 0,0 -0.13,16.66 -0.13,16.66 0,0 -11.70001,5.860002 -11.70001,5.860002 0,0 -20.35,-4.040002 -20.35,-4.040002 0,0 -0.13,-16.52 -0.13,-16.52"
       id="Sans nom-93-6-2" />
    <path
       sodipodi:nodetypes="ccc"
       inkscape:connector-curvature="0"
       id="path827-6-2-2"
       d="m 379.22552,4.006239 9.49607,14.006735 -0.0163,16.903267"
       style="fill:none;stroke:#414141;stroke-width:0.93749785;stroke-linecap:butt;stroke-linejoin:bevel;stroke-miterlimit:4;stroke-dasharray:none;stroke-opacity:1" />
    <path
       sodipodi:nodetypes="cc"
       inkscape:connector-curvature="0"
       id="path829-0-6-8"
       d="m 388.72159,18.012974 11.81394,-5.616735"
       style="fill:none;stroke:#414141;stroke-width:0.93749785;stroke-linecap:butt;stroke-linejoin:miter;stroke-miterlimit:4;stroke-dasharray:none;stroke-opacity:1" />
    <path
       style="fill:none;fill-opacity:1;stroke:#000000;stroke-width:1.31249702;stroke-linecap:round;stroke-linejoin:round;stroke-miterlimit:4;stroke-dasharray:none;stroke-opacity:1"
       d="m 368.26552,14.356239 c 0,0 10.96,-10.35 10.96,-10.35 0,0 10.78001,-3.35 10.78001,-3.35 0,0 10.53,11.74 10.53,11.74 0,0 -0.13,16.66 -0.13,16.66 0,0 -11.70001,5.860002 -11.70001,5.860002 0,0 -20.35,-4.040002 -20.35,-4.040002 0,0 -0.13,-16.52 -0.13,-16.52"
       id="Sans nom-3-6-1-9"
       inkscape:connector-curvature="0" />
  </g>
</svg>
