<?xml version="1.0" encoding="UTF-8" standalone="no"?>
<svg
   xmlns:dc="http://purl.org/dc/elements/1.1/"
   xmlns:cc="http://creativecommons.org/ns#"
   xmlns:rdf="http://www.w3.org/1999/02/22-rdf-syntax-ns#"
   xmlns:svg="http://www.w3.org/2000/svg"
   xmlns="http://www.w3.org/2000/svg"
   xmlns:sodipodi="http://sodipodi.sourceforge.net/DTD/sodipodi-0.dtd"
   xmlns:inkscape="http://www.inkscape.org/namespaces/inkscape"
   width="12.128627mm"
   height="3.0118105mm"
   viewBox="0 0 143.25069 35.572485"
   version="1.1"
   id="svg3"
   sodipodi:docname="settlements.svg"
   inkscape:version="0.92.4 (5da689c313, 2019-01-14)">
  <metadata
     id="metadata9">
    <rdf:RDF>
      <cc:Work
         rdf:about="">
        <dc:format>image/svg+xml</dc:format>
        <dc:type
           rdf:resource="http://purl.org/dc/dcmitype/StillImage" />
        <dc:title />
      </cc:Work>
    </rdf:RDF>
  </metadata>
  <defs
     id="defs7" />
  <sodipodi:namedview
     pagecolor="#ffffff"
     bordercolor="#666666"
     borderopacity="1"
     objecttolerance="10"
     gridtolerance="10"
     guidetolerance="10"
     inkscape:pageopacity="0"
     inkscape:pageshadow="2"
     inkscape:window-width="1920"
     inkscape:window-height="1025"
     id="namedview5"
     showgrid="false"
     inkscape:zoom="18.526681"
     inkscape:cx="11.106329"
     inkscape:cy="14.170905"
     inkscape:window-x="0"
     inkscape:window-y="27"
     inkscape:window-maximized="1"
     inkscape:current-layer="svg3" />
  <g
     id="g842"
     transform="translate(0.15627664,0.15624624)">
    <path
       style="fill:#d42b2b;fill-opacity:1;stroke:none;stroke-width:1;stroke-linecap:round;stroke-linejoin:bevel"
       d="m 0.53987309,14.199993 c 0,0 10.95999991,-10.3500003 10.95999991,-10.3500003 0,0 10.78,-3.34999997 10.78,-3.34999997 0,0 10.53,11.74000027 10.53,11.74000027 0,0 -0.13,16.66 -0.13,16.66 0,0 -11.7,5.86 -11.7,5.86 0,0 -20.34999991,-4.04 -20.34999991,-4.04 0,0 -0.13,-16.52 -0.13,-16.52"
       id="Sans nom"
       inkscape:connector-curvature="0" />
    <path
       sodipodi:nodetypes="ccc"
       inkscape:connector-curvature="0"
       id="path827"
       d="m 11.499873,3.8499927 9.496069,14.0067353 -0.01607,16.903265"
       style="fill:none;stroke:#a72121;stroke-width:0.93749785;stroke-linecap:butt;stroke-linejoin:bevel;stroke-miterlimit:4;stroke-dasharray:none;stroke-opacity:1" />
    <path
       sodipodi:nodetypes="cc"
       inkscape:connector-curvature="0"
       id="path829"
       d="M 20.995942,17.856728 32.809873,12.239993"
       style="fill:none;stroke:#a72121;stroke-width:0.93749785;stroke-linecap:butt;stroke-linejoin:miter;stroke-miterlimit:4;stroke-dasharray:none;stroke-opacity:1" />
    <path
       style="fill:none;fill-opacity:1;stroke:#000000;stroke-width:1.31249702;stroke-linecap:round;stroke-linejoin:round;stroke-miterlimit:4;stroke-dasharray:none;stroke-opacity:1"
       d="m 0.53987319,14.199993 c 0,0 10.95999981,-10.3500003 10.95999981,-10.3500003 0,0 10.78,-3.34999997 10.78,-3.34999997 0,0 10.530001,11.74000027 10.530001,11.74000027 0,0 -0.13,16.66 -0.13,16.66 0,0 -11.700001,5.860001 -11.700001,5.860001 0,0 -20.34999981,-4.040001 -20.34999981,-4.040001 0,0 -0.13,-16.52 -0.13,-16.52"
       id="Sans nom-3"
       inkscape:connector-curvature="0" />
  </g>
  <g
     id="g852"
     transform="translate(1.2245512,0.15624624)">
    <path
       inkscape:connector-curvature="0"
       style="fill:#5cbe31;fill-opacity:1;stroke:none;stroke-width:1;stroke-linecap:round;stroke-linejoin:bevel"
       d="m 36.014449,14.199993 c 0,0 10.96,-10.3500003 10.96,-10.3500003 0,0 10.78,-3.34999997 10.78,-3.34999997 0,0 10.53,11.74000027 10.53,11.74000027 0,0 -0.13,16.66 -0.13,16.66 0,0 -11.7,5.86 -11.7,5.86 0,0 -20.35,-4.04 -20.35,-4.04 0,0 -0.13,-16.52 -0.13,-16.52"
       id="Sans nom-7" />
    <path
       sodipodi:nodetypes="ccc"
       inkscape:connector-curvature="0"
       id="path827-5"
       d="m 46.974449,3.8499927 9.496069,14.0067353 -0.01607,16.903265"
       style="fill:none;stroke:#3f911b;stroke-width:0.93749785;stroke-linecap:butt;stroke-linejoin:bevel;stroke-miterlimit:4;stroke-dasharray:none;stroke-opacity:1" />
    <path
       sodipodi:nodetypes="cc"
       inkscape:connector-curvature="0"
       id="path829-3"
       d="M 56.470518,17.856728 68.284449,12.239993"
       style="fill:none;stroke:#3f911b;stroke-width:0.93749785;stroke-linecap:butt;stroke-linejoin:miter;stroke-miterlimit:4;stroke-dasharray:none;stroke-opacity:1" />
    <path
       style="fill:none;fill-opacity:1;stroke:#000000;stroke-width:1.31249702;stroke-linecap:round;stroke-linejoin:round;stroke-miterlimit:4;stroke-dasharray:none;stroke-opacity:1"
       d="m 36.014449,14.199993 c 0,0 10.96,-10.3500003 10.96,-10.3500003 0,0 10.78,-3.34999997 10.78,-3.34999997 0,0 10.530001,11.74000027 10.530001,11.74000027 0,0 -0.13,16.66 -0.13,16.66 0,0 -11.700001,5.860001 -11.700001,5.860001 0,0 -20.35,-4.040001 -20.35,-4.040001 0,0 -0.13,-16.52 -0.13,-16.52"
       id="Sans nom-3-5"
       inkscape:connector-curvature="0" />
  </g>
  <g
     id="g862"
     transform="translate(0.26872651,0.15624624)">
    <g
       id="g838"
       transform="translate(2.0241033)">
      <path
         id="Sans nom-9"
         d="m 71.489024,14.199993 c 0,0 10.96,-10.3500003 10.96,-10.3500003 0,0 10.78,-3.34999997 10.78,-3.34999997 0,0 10.529996,11.74000027 10.529996,11.74000027 0,0 -0.13,16.66 -0.13,16.66 0,0 -11.699996,5.86 -11.699996,5.86 0,0 -20.35,-4.04 -20.35,-4.04 0,0 -0.13,-16.52 -0.13,-16.52"
         style="fill:#5382c6;fill-opacity:1;stroke:none;stroke-width:1;stroke-linecap:round;stroke-linejoin:bevel"
         inkscape:connector-curvature="0" />
      <path
         style="fill:none;stroke:#225195;stroke-width:0.93749785;stroke-linecap:butt;stroke-linejoin:bevel;stroke-miterlimit:4;stroke-dasharray:none;stroke-opacity:1"
         d="m 82.449024,3.8499927 9.496069,14.0067353 -0.01607,16.903265"
         id="path827-1"
         inkscape:connector-curvature="0"
         sodipodi:nodetypes="ccc" />
      <path
         style="fill:none;stroke:#225195;stroke-width:0.93749785;stroke-linecap:butt;stroke-linejoin:miter;stroke-miterlimit:4;stroke-dasharray:none;stroke-opacity:1"
         d="M 91.945093,17.856728 103.75902,12.239993"
         id="path829-2"
         inkscape:connector-curvature="0"
         sodipodi:nodetypes="cc" />
      <path
         inkscape:connector-curvature="0"
         id="Sans nom-3-7"
         d="m 71.489024,14.199993 c 0,0 10.96,-10.3500003 10.96,-10.3500003 0,0 10.78,-3.34999997 10.78,-3.34999997 0,0 10.529996,11.74000027 10.529996,11.74000027 0,0 -0.13,16.66 -0.13,16.66 0,0 -11.699996,5.860001 -11.699996,5.860001 0,0 -20.35,-4.040001 -20.35,-4.040001 0,0 -0.13,-16.52 -0.13,-16.52"
         style="fill:none;fill-opacity:1;stroke:#000000;stroke-width:1.31249702;stroke-linecap:round;stroke-linejoin:round;stroke-miterlimit:4;stroke-dasharray:none;stroke-opacity:1" />
    </g>
  </g>
  <g
     id="g872"
     transform="translate(3.3611069,0.15624624)">
    <path
       inkscape:connector-curvature="0"
       style="fill:#ecad62;fill-opacity:1;stroke:none;stroke-width:1;stroke-linecap:round;stroke-linejoin:bevel"
       d="m 106.96359,14.199993 c 0,0 10.96,-10.3500003 10.96,-10.3500003 0,0 10.78,-3.34999997 10.78,-3.34999997 0,0 10.53,11.74000027 10.53,11.74000027 0,0 -0.13,16.66 -0.13,16.66 0,0 -11.7,5.86 -11.7,5.86 0,0 -20.35,-4.04 -20.35,-4.04 0,0 -0.13,-16.52 -0.13,-16.52"
       id="Sans nom-93" />
    <path
       sodipodi:nodetypes="ccc"
       inkscape:connector-curvature="0"
       id="path827-6"
       d="m 117.92359,3.8499927 9.49607,14.0067353 -0.0161,16.903265"
       style="fill:none;stroke:#de841a;stroke-width:0.93749785;stroke-linecap:butt;stroke-linejoin:bevel;stroke-miterlimit:4;stroke-dasharray:none;stroke-opacity:1" />
    <path
       sodipodi:nodetypes="cc"
       inkscape:connector-curvature="0"
       id="path829-0"
       d="m 127.41966,17.856728 11.81393,-5.616735"
       style="fill:none;stroke:#de841a;stroke-width:0.93749785;stroke-linecap:butt;stroke-linejoin:miter;stroke-miterlimit:4;stroke-dasharray:none;stroke-opacity:1" />
    <path
       style="fill:none;fill-opacity:1;stroke:#000000;stroke-width:1.31249702;stroke-linecap:round;stroke-linejoin:round;stroke-miterlimit:4;stroke-dasharray:none;stroke-opacity:1"
       d="m 106.96359,14.199993 c 0,0 10.96,-10.3500003 10.96,-10.3500003 0,0 10.78,-3.34999997 10.78,-3.34999997 0,0 10.53,11.74000027 10.53,11.74000027 0,0 -0.13,16.66 -0.13,16.66 0,0 -11.7,5.860001 -11.7,5.860001 0,0 -20.35,-4.040001 -20.35,-4.040001 0,0 -0.13,-16.52 -0.13,-16.52"
       id="Sans nom-3-6"
       inkscape:connector-curvature="0" />
  </g>
</svg>
